<svg width="283" height="283" viewBox="0 0 283 283" fill="none" xmlns="http://www.w3.org/2000/svg">
<rect width="283" height="283" rx="11" fill="black"/>
<path fill-rule="evenodd" clip-rule="evenodd" d="M264 247.727H209.852V169.43C209.852 148.935 201.382 134.945 182.756 134.945C168.509 134.945 160.587 144.386 156.899 153.485C155.516 156.751 155.732 161.3 155.732 165.85V247.727H102.088C102.088 247.727 102.779 109.031 102.088 96.4234H155.732V120.169C158.901 109.787 176.043 94.9686 203.398 94.9686C237.336 94.9686 264 116.732 264 163.597V247.727ZM47.8387 77.4979H47.4931C30.2071 77.4979 19 65.9314 19 51.2703C19 36.3239 30.5384 25 48.1701 25C65.7874 25 76.6199 36.2955 76.9656 51.2276C76.9656 65.8888 65.7873 77.4979 47.8387 77.4979ZM25.1796 96.4234H72.9322V247.727H25.1796V96.4234Z" fill="white"/>
</svg>
